<svg id="o-0" xmlns="http://www.w3.org/2000/svg" viewBox="0 0 878.6 878.6"><defs><style>.cls-1{fill:#8abcd7;}</style></defs><g id="textblocktransform"><path class="cls-1" d="M-993.37,96.22c-242.6,0-439.3,196.7-439.3,439.3s196.7,439.3,439.3,439.3,439.3-196.7,439.3-439.3S-750.77,96.22-993.37,96.22Zm187.5,297.4c-6.7,14.6-55,84.1-63.9,95.4s-5.6,51.6-10.1,81.9-23.6,66.2-42.6,87.5-3.4,186.2-3.4,186.2h-157s30.3-196.3,24.7-197.4c-5.6-2.2-32.5-32.5-52.7-51.6s-24.7-32.5-29.2-49.4-17.9-43.7-22.4-47.1c-4.5-4.5-23.6-50.5-25.8-56.1-2.2-4.5,0-17.9,23.6-13.5s42.6,35.9,46,47.1c5.6,3.4,22.4,39.3,31.4,39.3s16.8-31.4,19.1-51.6-10.1-68.4-13.5-80.8-11.2-50.5-13.5-66.2c-2.2-14.6-19.1-56.1,5.6-59.5,23.6-3.4,30.3,47.1,37,69.6s26.9,88.6,37,86.4c10.1-3.4,9-15.7,9-25.8s-1.1-43.7,0-57.2c0-13.5,3.4-55,3.4-68.4s2.2-35.9,22.4-35.9c19.1,0,16.8,23.6,15.7,44.9-1.1,22.4,2.2,72.9-2.2,112.2s3.4,39.3,9,38.1c6.7-1.1,9-47.1,13.5-68.4s6.7-65.1,10.1-83,31.4-19.1,35.9,1.1-5.6,78.5-9,104.3-10.1,67.3-4.5,75.2,17.9,0,24.7-3.4,22.4-22.4,43.7-48.2c16.8-35.9,29.2-40.4,40.4-37C-792.47,365.62-799.17,379-805.87,393.62Z" transform="translate(1432.67 -96.22)"/></g></svg>